<?xml version="1.0" encoding="UTF-8"?>
<svg version="1.1" xmlns="http://www.w3.org/2000/svg" width="397" height="181">
<path d="M0 0 C4.6589823 -0.07487239 9.31760455 -0.12893832 13.97705078 -0.16479492 C15.55784211 -0.17976271 17.13859278 -0.20014437 18.71923828 -0.22631836 C40.77762504 -0.58209879 40.77762504 -0.58209879 49.72265625 7.5 C52.68763613 10.98181123 52.2689938 15.24153361 52.21875 19.5625 C51.75654071 24.71283209 48.63468889 27.61597931 45 31 C45.78375 31.5775 46.5675 32.155 47.375 32.75 C51.1124944 35.95356663 51.88454725 37.7353897 52.3359375 42.6796875 C52.35972703 44.07798326 52.37243395 45.47650424 52.375 46.875 C52.39949219 47.56980469 52.42398438 48.26460937 52.44921875 48.98046875 C52.4784663 54.15728437 51.2688746 57.03737144 48 61 C35.20153584 70.21489419 16.70827891 67.47082789 2 66 C2 45.21 2 24.42 2 3 C1.34 3 0.68 3 0 3 C0 2.01 0 1.02 0 0 Z M21 7 C21.33 13.6 21.66 20.2 22 27 C24.97 27 27.94 27 31 27 C33.42457025 23.36314463 33.29768407 20.63767221 33.25 16.4375 C33.25773437 15.75236328 33.26546875 15.06722656 33.2734375 14.36132812 C33.37165302 10.22492724 33.37165302 10.22492724 31 7 C27.7 7 24.4 7 21 7 Z M21 34 C20.97283911 37.02089478 20.95308343 40.04154129 20.9375 43.0625 C20.92912109 43.91005859 20.92074219 44.75761719 20.91210938 45.63085938 C20.89316994 50.5361722 21.16673655 55.16444755 22 60 C23.8871875 60.0928125 23.8871875 60.0928125 25.8125 60.1875 C26.52019531 60.22230469 27.22789063 60.25710937 27.95703125 60.29296875 C30.63431074 59.90903766 31.33683363 59.10315133 33 57 C33.45942166 54.83273497 33.45942166 54.83273497 33.3984375 52.4375 C33.40230469 51.55835937 33.40617187 50.67921875 33.41015625 49.7734375 C33.39855469 48.85820313 33.38695312 47.94296875 33.375 47 C33.38660156 46.08476563 33.39820313 45.16953125 33.41015625 44.2265625 C33.40628906 43.34742188 33.40242188 42.46828125 33.3984375 41.5625 C33.39505371 40.75941406 33.39166992 39.95632812 33.38818359 39.12890625 C32.89744719 36.43757201 32.24071976 35.55445679 30 34 C27.71669899 33.63853543 27.71669899 33.63853543 25.3125 33.8125 C24.50425781 33.83957031 23.69601563 33.86664063 22.86328125 33.89453125 C22.24839844 33.92933594 21.63351563 33.96414062 21 34 Z " fill="#EFEFEF" transform="translate(7,43)"/>
<path d="M0 0 C5.17287071 5.69015778 4.25315601 12.37858836 4.29516602 19.65917969 C4.3066635 21.04600241 4.3270804 22.43278166 4.35668945 23.81933594 C4.6653288 38.28227909 4.6653288 38.28227909 0 44 C-8.00911821 50.84990373 -19.7114133 49.6486308 -29.54736328 49.2265625 C-34.37898172 48.78024139 -38.41406039 47.27378775 -42 44 C-47.03902902 37.61430839 -46.67674856 31.58538785 -46.63134766 23.83276367 C-46.62502319 21.57079354 -46.67199471 19.31405902 -46.72265625 17.05273438 C-46.82857737 4.9922506 -46.82857737 4.9922506 -43.18359375 0.58203125 C-31.97390922 -9.93690009 -11.92682663 -7.95121775 0 0 Z M-27 3 C-27.18757906 5.77353077 -27.25560698 8.44540644 -27.23046875 11.21875 C-27.23001053 12.03243042 -27.22955231 12.84611084 -27.2290802 13.68444824 C-27.22605711 15.40602068 -27.2181691 17.12759036 -27.20581055 18.84912109 C-27.18757352 21.48935602 -27.18530072 24.12923996 -27.18554688 26.76953125 C-27.18063094 28.44010721 -27.1748023 30.11068078 -27.16796875 31.78125 C-27.16685593 32.57398315 -27.1657431 33.36671631 -27.16459656 34.18347168 C-27.22137269 38.22262999 -27.22137269 38.22262999 -26 42 C-22.60867549 42.84172822 -22.60867549 42.84172822 -19 43 C-18.01 42.34 -17.02 41.68 -16 41 C-15.73346054 38.0204901 -15.65232216 35.2511418 -15.70703125 32.2734375 C-15.71127609 31.41062164 -15.71552094 30.54780579 -15.71989441 29.65884399 C-15.73671608 26.89724803 -15.77437402 24.13637617 -15.8125 21.375 C-15.82754236 19.50521886 -15.84123154 17.6354263 -15.85351562 15.765625 C-15.88663094 11.17680342 -15.93843661 6.58852456 -16 2 C-19.78971948 0.10514026 -23.97870606 -0.02129394 -27 3 Z " fill="#EEEEEE" transform="translate(110,60)"/>
<path d="M0 0 C2.85513266 3.78758928 3.9642504 6.94538678 4.125 11.6875 C2.71155113 15.84932168 0.63771499 17.73915274 -3 20 C-6.8804215 21.68538137 -10.85307992 23.00735722 -14.875 24.3125 C-15.94492187 24.67150391 -17.01484375 25.03050781 -18.1171875 25.40039062 C-20.740832 26.27884303 -23.36990215 27.14106205 -26 28 C-26 32.29 -26 36.58 -26 41 C-23.26752652 42.36623674 -21.01801098 42.128426 -18 42 C-16.25875751 40.25875751 -16.58155852 37.6223439 -16.3125 35.25 C-15.21349172 28.41172624 -15.21349172 28.41172624 -12.25 25.75 C-8.66782671 23.82113746 -6.98957946 23.32092265 -3 24 C0.78607941 25.72094519 2.48356668 27.15698406 4 31 C4.32139204 35.60661925 3.67655151 39.07742976 0.9375 42.8125 C-4.73418615 47.03609607 -9.84908309 49.49818127 -17 50 C-17.66515625 50.0515625 -18.3303125 50.103125 -19.015625 50.15625 C-27.11723742 50.50595989 -35.8372973 49.27062711 -42.1875 43.9375 C-44.99362533 41.25427067 -45.95827143 39.82274828 -46.16113281 35.82299805 C-46.18131539 34.46931637 -46.1948564 33.11552563 -46.203125 31.76171875 C-46.20882507 31.04393753 -46.21452515 30.32615631 -46.22039795 29.58662415 C-46.22984952 28.06598383 -46.23638256 26.54532301 -46.24023438 25.0246582 C-46.24991925 22.70682611 -46.2809308 20.38988875 -46.3125 18.07226562 C-46.31903237 16.59375526 -46.32428192 15.11523855 -46.328125 13.63671875 C-46.3404718 12.94696457 -46.3528186 12.25721039 -46.36553955 11.54655457 C-46.34185911 6.38727771 -45.11680099 3.17294955 -41.52734375 -0.51171875 C-30.33548976 -8.78874099 -11.0502142 -8.39816279 0 0 Z M-27 3 C-27.41527124 5.12694665 -27.41527124 5.12694665 -27.29296875 7.5703125 C-27.28330078 8.46621094 -27.27363281 9.36210938 -27.26367188 10.28515625 C-27.23853516 11.22230469 -27.21339844 12.15945312 -27.1875 13.125 C-27.17396484 14.06988281 -27.16042969 15.01476562 -27.14648438 15.98828125 C-27.11106306 18.32608779 -27.06167271 20.66276237 -27 23 C-25.72549553 22.40361667 -24.45553123 21.79752584 -23.1875 21.1875 C-22.47980469 20.85105469 -21.77210938 20.51460937 -21.04296875 20.16796875 C-18.94265987 18.96721855 -17.52386103 17.87581579 -16 16 C-15.52302551 12.87110826 -15.52302551 12.87110826 -15.625 9.4375 C-15.61726563 8.28121094 -15.60953125 7.12492187 -15.6015625 5.93359375 C-15.79878906 4.48146484 -15.79878906 4.48146484 -16 3 C-20.32765982 0.11489345 -22.67234018 0.11489345 -27 3 Z " fill="#ECECEC" transform="translate(381,60)"/>
<path d="M0 0 C3.42246878 2.97927138 4.46557644 6.08410864 5.00390625 10.48046875 C4.56331499 13.93176697 3.67509278 15.61442747 1.62890625 18.41796875 C-0.76171875 19.82421875 -0.76171875 19.82421875 -3.62109375 20.91796875 C-4.67296875 21.32402344 -5.72484375 21.73007813 -6.80859375 22.1484375 C-12.96334245 24.34174159 -19.1501157 26.42079683 -25.37109375 28.41796875 C-25.37109375 33.03796875 -25.37109375 37.65796875 -25.37109375 42.41796875 C-21.36100035 42.59661506 -21.36100035 42.59661506 -17.37109375 42.41796875 C-14.88725977 39.93413477 -15.1294541 39.02667466 -14.99609375 35.60546875 C-14.69952775 32.24114626 -14.37014298 30.41610524 -12.80859375 27.35546875 C-9.46868512 24.70066958 -6.61752553 23.97783954 -2.37109375 24.41796875 C3.06100502 27.28216628 3.06100502 27.28216628 4.62890625 30.41796875 C5.01247136 35.02075011 5.07855063 37.48270845 3.06640625 41.66796875 C-2.58915609 48.04860319 -9.52106365 49.86952843 -17.74609375 50.640625 C-25.56052223 50.92865682 -34.68585461 49.96709675 -40.99609375 44.98046875 C-46.56508942 38.97181552 -45.7434181 32.55528824 -45.74169922 24.77392578 C-45.74606644 22.55683217 -45.78239003 20.34174092 -45.8203125 18.125 C-45.82618269 16.70443384 -45.83015073 15.28385829 -45.83203125 13.86328125 C-45.84024902 12.57953613 -45.8484668 11.29579102 -45.85693359 9.97314453 C-45.28493407 5.78748772 -44.0146385 3.67645732 -41.37109375 0.41796875 C-29.64474639 -7.85945292 -11.90334673 -8.20008331 0 0 Z M-25.0402832 2.66333008 C-26.72989121 4.89103375 -26.71988838 6.09450215 -26.6640625 8.8671875 C-26.65439453 9.71474609 -26.64472656 10.56230469 -26.63476562 11.43554688 C-26.60962891 12.31662109 -26.58449219 13.19769531 -26.55859375 14.10546875 C-26.54505859 14.99814453 -26.53152344 15.89082031 -26.51757812 16.81054688 C-26.48223454 19.01363041 -26.43289868 21.21549457 -26.37109375 23.41796875 C-24.74134811 22.65722032 -23.11742727 21.88398442 -21.49609375 21.10546875 C-20.59117187 20.67621094 -19.68625 20.24695313 -18.75390625 19.8046875 C-16.10659899 18.49802995 -16.10659899 18.49802995 -14.37109375 15.41796875 C-14.01627074 12.77824927 -14.01627074 12.77824927 -14.05859375 9.91796875 C-14.04183594 8.95890625 -14.02507812 7.99984375 -14.0078125 7.01171875 C-14.16546245 4.39793418 -14.16546245 4.39793418 -15.703125 2.59765625 C-18.6902806 0.48496072 -22.10332288 0.47210079 -25.0402832 2.66333008 Z " fill="#EEEEEE" transform="translate(279.37109375,59.58203125)"/>
<path d="M0 0 C3.46397512 2.95169711 4.49977106 6.07625531 5.0390625 10.48046875 C4.59967781 13.92231545 3.83943012 15.7175124 1.6640625 18.41796875 C-1.41303152 20.29841509 -3.27084226 20.41911077 -6.8984375 20.35546875 C-10.3359375 19.41796875 -10.3359375 19.41796875 -12.6484375 17.54296875 C-14.74108345 13.66769848 -15.32168601 10.07834366 -15.94140625 5.74609375 C-16.09703491 3.46386367 -16.09703491 3.46386367 -17.3359375 2.41796875 C-21.47870625 2.17063738 -21.47870625 2.17063738 -25.3359375 3.41796875 C-25.3359375 16.28796875 -25.3359375 29.15796875 -25.3359375 42.41796875 C-19.00675789 42.93971794 -19.00675789 42.93971794 -16.3359375 41.41796875 C-16.0200676 39.51105047 -15.78291132 37.59080843 -15.5859375 35.66796875 C-14.53092913 28.79814679 -14.53092913 28.79814679 -11.6484375 26.16796875 C-7.72799759 24.09679295 -5.70187314 23.62416227 -1.3359375 24.41796875 C2.25586029 26.99469325 3.45569291 28.6400556 4.6015625 32.91796875 C4.69144813 37.951564 3.67995905 40.19889289 0.4765625 44.04296875 C-6.91628521 50.28581793 -14.90500452 50.41796875 -24.3359375 50.41796875 C-30.8260477 49.86781371 -36.04358464 48.22846281 -41.3359375 44.41796875 C-46.43785457 38.10897897 -46.01246233 31.96515279 -45.96728516 24.25073242 C-45.96096069 21.98876229 -46.00793221 19.73202777 -46.05859375 17.47070312 C-46.16443314 5.41002108 -46.16443314 5.41002108 -42.515625 1 C-31.83807204 -9.00536242 -11.56942582 -7.85891276 0 0 Z " fill="#EDEDED" transform="translate(222.3359375,59.58203125)"/>
<path d="M0 0 C2.22855574 -0.0814222 4.45797655 -0.13938079 6.6875 -0.1875 C8.54955078 -0.23970703 8.54955078 -0.23970703 10.44921875 -0.29296875 C14.27254428 0.02248715 16.05915654 0.57060758 19 3 C20.14453125 5.26171875 20.14453125 5.26171875 20.8125 7.6875 C21.04582031 8.49574219 21.27914062 9.30398437 21.51953125 10.13671875 C21.67808594 10.75160156 21.83664063 11.36648437 22 12 C22.68707031 11.21753906 23.37414062 10.43507813 24.08203125 9.62890625 C24.99188089 8.60649789 25.90205408 7.58437741 26.8125 6.5625 C27.26431641 6.04623047 27.71613281 5.52996094 28.18164062 4.99804688 C31.69863038 1.07031379 33.55132671 0.09346279 38.875 -0.25 C42.72627732 -0.17946379 44.97058292 0.47548577 48 3 C50.48059832 6.0169439 51.84100195 8.15201042 52.5625 12 C51.95505676 15.2396973 50.94888155 17.41790996 48.69140625 19.85546875 C45.91669654 21.73304368 43.43763985 21.75324436 40.16015625 21.5234375 C36.59852295 20.66040158 35.03752448 18.95769682 33 16 C32.6875 13.1875 32.6875 13.1875 33 11 C32.113125 11.556875 31.22625 12.11375 30.3125 12.6875 C29.81363281 13.00074219 29.31476563 13.31398438 28.80078125 13.63671875 C23.65196902 17.47892563 23.65196902 17.47892563 21.41650391 23.28979492 C21.43632324 24.50771729 21.45614258 25.72563965 21.4765625 26.98046875 C21.4836171 27.96156364 21.4836171 27.96156364 21.49081421 28.96247864 C21.51205355 31.03858544 21.56861458 33.11208292 21.625 35.1875 C21.64151903 36.59307486 21.65586403 37.99867706 21.66796875 39.40429688 C21.40944676 45.89903186 21.40944676 45.89903186 23 52 C16.07 52 9.14 52 2 52 C1.93941406 48.58140625 1.87882812 45.1628125 1.81640625 41.640625 C1.75460453 38.33103246 1.69122191 35.02147371 1.62768555 31.71191406 C1.58436394 29.41116338 1.54268687 27.11038112 1.50268555 24.80957031 C1.44491605 21.50315839 1.38124051 18.196905 1.31640625 14.890625 C1.29969376 13.86132874 1.28298126 12.83203247 1.26576233 11.77154541 C1.24581711 10.81085144 1.22587189 9.85015747 1.20532227 8.86035156 C1.18977798 8.01651917 1.1742337 7.17268677 1.15821838 6.30328369 C1.00592429 4.08624356 0.61217912 2.13149621 0 0 Z " fill="#F0F0F0" transform="translate(119,57)"/>
<path d="M0 0 C0.33 0 0.66 0 1 0 C1.33 6.27 1.66 12.54 2 19 C3.24960422 14.00158312 3.37259092 9.15349391 3.62109375 4.01953125 C3.74613281 3.02308594 3.87117188 2.02664062 4 1 C4.66 0.67 5.32 0.34 6 0 C6 8.58 6 17.16 6 26 C6.66 26 7.32 26 8 26 C7.98839844 24.70964844 7.97679687 23.41929688 7.96484375 22.08984375 C7.9554588 20.37239729 7.94635936 18.65494925 7.9375 16.9375 C7.92912109 16.08994141 7.92074219 15.24238281 7.91210938 14.36914062 C7.89316994 9.4638278 8.16673655 4.83555245 9 0 C11.3968665 2.3968665 11.28281133 3.07028314 11.4140625 6.3515625 C11.45273437 7.20234375 11.49140625 8.053125 11.53125 8.9296875 C11.5621875 9.81914062 11.593125 10.70859375 11.625 11.625 C11.66367187 12.5221875 11.70234375 13.419375 11.7421875 14.34375 C11.83659357 16.5622927 11.92216748 18.78082403 12 21 C12.01981934 20.43490723 12.03963867 19.86981445 12.06005859 19.28759766 C12.15518236 16.73292003 12.26491058 14.17907459 12.375 11.625 C12.4059375 10.73554688 12.436875 9.84609375 12.46875 8.9296875 C12.50742187 8.07890625 12.54609375 7.228125 12.5859375 6.3515625 C12.6173584 5.56604004 12.6487793 4.78051758 12.68115234 3.97119141 C13 2 13 2 15 0 C16.18814695 9.56882636 17.20679267 19.10014072 17.3125 28.75 C17.33860352 29.83740479 17.33860352 29.83740479 17.36523438 30.94677734 C17.35988347 36.70034151 16.10723411 41.52264281 12.33203125 45.9609375 C10.3250037 49.03327879 10.60240868 52.08031633 10.6875 55.625 C10.69587891 56.40278809 10.70425781 57.18057617 10.71289062 57.98193359 C10.84677577 64.88639027 11.4192709 71.74630219 12 78.625 C12.75343759 87.55023623 13.21716997 96.41650524 13.25 105.375 C13.25902344 106.3851416 13.26804687 107.3952832 13.27734375 108.43603516 C13.27347656 109.37237793 13.26960938 110.3087207 13.265625 111.2734375 C13.26336914 112.09247559 13.26111328 112.91151367 13.25878906 113.75537109 C12.96897261 116.26911874 12.36429824 117.87468467 11 120 C8.625 120.9375 8.625 120.9375 6 121 C3.59730403 119.73191046 2.31016124 118.88736713 1.40112305 116.28662109 C0.44242563 110.82152069 0.80665523 105.15992051 0.8125 99.625 C0.81141235 98.58522507 0.81141235 98.58522507 0.81030273 97.52444458 C0.81133015 88.61969204 1.08836522 79.80255368 2 70.9375 C2.09007324 70.05650635 2.18014648 69.1755127 2.27294922 68.26782227 C2.35947754 67.42405029 2.44600586 66.58027832 2.53515625 65.7109375 C4.30047679 53.78816667 4.30047679 53.78816667 0.5625 42.9375 C-0.283125 41.968125 -1.12875 40.99875 -2 40 C-3.60092633 34.36876963 -2.93364751 28.59528064 -2.6875 22.8125 C-2.65205078 21.72646484 -2.61660156 20.64042969 -2.58007812 19.52148438 C-2.3110409 12.83570857 -1.54940175 6.51151414 0 0 Z " fill="#F6D95B" transform="translate(292,0)"/>
<path d="M0 0 C1.7015625 0.2475 1.7015625 0.2475 3.4375 0.5 C8.4094981 7.95799715 6.2386045 18.09980544 5 26.5 C3.93182186 34.46197147 3.14870091 42.27396177 3.1875 50.3125 C3.19245483 51.47555664 3.19245483 51.47555664 3.19750977 52.66210938 C3.25997988 56.60012565 3.25997988 56.60012565 3.94111633 60.46507263 C4.46766334 62.62365476 4.57104324 64.50734109 4.58276367 66.72680664 C4.58914352 67.55189224 4.59552338 68.37697784 4.60209656 69.22706604 C4.60320938 70.11248581 4.6043222 70.99790558 4.60546875 71.91015625 C4.60879715 72.83283798 4.61212555 73.75551971 4.61555481 74.7061615 C4.62061513 76.66046654 4.62296341 78.61478021 4.62280273 80.5690918 C4.62497418 83.52733064 4.64309767 86.48518722 4.66210938 89.44335938 C4.7152967 107.85727791 4.7152967 107.85727791 2.4375 116.5 C-0.0375 116.995 -0.0375 116.995 -2.5625 117.5 C-5.30910519 113.51051759 -6.38836265 109.70772772 -7.1875 105 C-7.37469604 103.94377441 -7.37469604 103.94377441 -7.56567383 102.86621094 C-8.6599584 96.43265997 -9.2904303 90.02142821 -9.5625 83.5 C-9.61535156 82.47003906 -9.66820312 81.44007813 -9.72265625 80.37890625 C-9.93787825 73.03328596 -9.12964683 66.1524246 -5.52587891 59.62133789 C-4.49259174 57.34606364 -4.30491654 55.88344555 -4.296875 53.40234375 C-4.29300781 52.61029541 -4.28914063 51.81824707 -4.28515625 51.00219727 C-4.29417969 50.15584717 -4.30320312 49.30949707 -4.3125 48.4375 C-4.31636719 47.55570068 -4.32023437 46.67390137 -4.32421875 45.76538086 C-4.41295657 38.84444745 -5.03839739 32.05592956 -5.83959961 25.18676758 C-8.5928978 1.20602074 -8.5928978 1.20602074 0 0 Z " fill="#E8CC57" transform="translate(319.5625,63.5)"/>
<path d="M0 0 C0.08302368 1.55726807 0.08302368 1.55726807 0.16772461 3.14599609 C0.37601424 7.04130564 0.58735422 10.936445 0.79956055 14.83154297 C0.89054682 16.50923323 0.98073378 18.18696707 1.07006836 19.86474609 C1.60398005 30.64361406 1.60398005 30.64361406 2.5546875 41.390625 C3.17203338 47.04627042 3.1839868 52.69064428 3.1875 58.375 C3.19974609 59.44105469 3.21199219 60.50710937 3.22460938 61.60546875 C3.22750977 63.14267578 3.22750977 63.14267578 3.23046875 64.7109375 C3.23457764 65.63181152 3.23868652 66.55268555 3.24291992 67.50146484 C2.98415159 70.16300762 2.46268651 71.77117436 1 74 C-1.375 74.9375 -1.375 74.9375 -4 75 C-6.38986419 73.73868279 -7.68337319 72.8909791 -8.60107422 70.30859375 C-9.12707179 67.26463229 -9.12991193 64.33951975 -9.1328125 61.25 C-9.13376923 60.59604248 -9.13472595 59.94208496 -9.13571167 59.26831055 C-9.136391 57.88313704 -9.13455395 56.49796032 -9.13037109 55.11279297 C-9.12508835 53.03475394 -9.13028828 50.95693797 -9.13671875 48.87890625 C-9.14897124 31.05846098 -9.14897124 31.05846098 -8 25 C-7.34 24.67 -6.68 24.34 -6 24 C-5.56337104 21.68897009 -5.56337104 21.68897009 -5.4375 18.90625 C-5.36273438 17.87628906 -5.28796875 16.84632812 -5.2109375 15.78515625 C-5.14132812 14.70105469 -5.07171875 13.61695313 -5 12.5 C-4.86284951 10.36400809 -4.71746478 8.22852343 -4.5625 6.09375 C-4.50191406 5.14177734 -4.44132812 4.18980469 -4.37890625 3.20898438 C-4.25386719 2.48001953 -4.12882812 1.75105469 -4 1 C-2 0 -2 0 0 0 Z " fill="#E6CB58" transform="translate(302,46)"/>
<path d="M0 0 C0.33 0 0.66 0 1 0 C1.33 6.27 1.66 12.54 2 19 C3.24960422 14.00158312 3.37259092 9.15349391 3.62109375 4.01953125 C3.74613281 3.02308594 3.87117188 2.02664062 4 1 C4.66 0.67 5.32 0.34 6 0 C6 8.58 6 17.16 6 26 C6.66 26 7.32 26 8 26 C7.67 27.32 7.34 28.64 7 30 C4.69 30 2.38 30 0 30 C0 33.63 0 37.26 0 41 C0.99 41 1.98 41 3 41 C2.67 41.99 2.34 42.98 2 44 C-1.33646856 41.09404351 -2.40815363 39.3526432 -3 35 C-3.08042096 30.93304955 -2.86046003 26.87587602 -2.6875 22.8125 C-2.65205078 21.72646484 -2.61660156 20.64042969 -2.58007812 19.52148438 C-2.3110409 12.83570857 -1.54940175 6.51151414 0 0 Z " fill="#C2AE5C" transform="translate(292,0)"/>
<path d="M0 0 C3.28788824 3.11016455 5.83735988 6.01618925 8 10 C8.33 6.7 8.66 3.4 9 0 C9.66 0 10.32 0 11 0 C11 5.28 11 10.56 11 16 C7 15 7 15 4.75 11.9375 C4.1725 10.968125 3.595 9.99875 3 9 C2.67 11.31 2.34 13.62 2 16 C1.01 16 0.02 16 -1 16 C-1.02685095 13.52076199 -1.04676547 11.0418116 -1.0625 8.5625 C-1.07506836 7.50192383 -1.07506836 7.50192383 -1.08789062 6.41992188 C-1.09653588 4.61306441 -1.05220011 2.80612397 -1 1 C-0.67 0.67 -0.34 0.34 0 0 Z " fill="#AA9B5C" transform="translate(163,126)"/>
<path d="M0 0 C7.60344828 0.60344828 7.60344828 0.60344828 10 3 C9.69347955 5.9425963 9.32728846 8.34542308 8 11 C8.89363605 13.60931266 8.89363605 13.60931266 10 16 C8.125 15.8125 8.125 15.8125 6 15 C4.75 12.4375 4.75 12.4375 4 10 C3.34 10 2.68 10 2 10 C2 11.98 2 13.96 2 16 C1.01 16 0.02 16 -1 16 C-1.02685095 13.52076199 -1.04676547 11.0418116 -1.0625 8.5625 C-1.07506836 7.50192383 -1.07506836 7.50192383 -1.08789062 6.41992188 C-1.09653588 4.61306441 -1.05220011 2.80612397 -1 1 C-0.67 0.67 -0.34 0.34 0 0 Z M2 3 C2 4.65 2 6.3 2 8 C3.65 7.67 5.3 7.34 7 7 C6.67 5.68 6.34 4.36 6 3 C4.68 3 3.36 3 2 3 Z " fill="#958845" transform="translate(10,126)"/>
<path d="M0 0 C6.8359375 -0.1953125 6.8359375 -0.1953125 9 0 C11 2 11 2 11.25 4.4375 C11 7 11 7 9 10 C9.80161791 12.67145537 9.80161791 12.67145537 11 15 C9.125 14.8125 9.125 14.8125 7 14 C5.75 11.4375 5.75 11.4375 5 9 C4.34 9 3.68 9 3 9 C3 10.98 3 12.96 3 15 C2.01 15 1.02 15 0 15 C0 10.05 0 5.1 0 0 Z M3 2 C3 3.65 3 5.3 3 7 C4.65 6.67 6.3 6.34 8 6 C8 4.68 8 3.36 8 2 C6.35 2 4.7 2 3 2 Z " fill="#B19E54" transform="translate(122,127)"/>
<path d="M0 0 C0.66 0.33 1.32 0.66 2 1 C2.4140625 3.72265625 2.4140625 3.72265625 2.625 7.0625 C2.69976562 8.16722656 2.77453125 9.27195313 2.8515625 10.41015625 C2.90054688 11.26480469 2.94953125 12.11945313 3 13 C4.32 13 5.64 13 7 13 C7.33 9.04 7.66 5.08 8 1 C8.99 0.67 9.98 0.34 11 0 C11.05402274 2.10388569 11.09280256 4.20816714 11.125 6.3125 C11.14820312 7.48425781 11.17140625 8.65601563 11.1953125 9.86328125 C11 13 11 13 9 16 C5.86634148 17.18570863 4.47642906 17.19423105 1.35546875 15.921875 C-1 14 -1 14 -1.5234375 10.8984375 C-1.47445312 9.73570312 -1.42546875 8.57296875 -1.375 7.375 C-1.34148437 6.20710937 -1.30796875 5.03921875 -1.2734375 3.8359375 C-1 1 -1 1 0 0 Z " fill="#9F9155" transform="translate(103,126)"/>
<path d="M0 0 C0.66 1.32 1.32 2.64 2 4 C0.35 6.31 -1.3 8.62 -3 11 C-3.33 10.34 -3.66 9.68 -4 9 C-5.32 9.33 -6.64 9.66 -8 10 C-7.98839844 10.77601562 -7.97679687 11.55203125 -7.96484375 12.3515625 C-7.89581971 20.61472608 -8.30878069 28.76708427 -9 37 C-10.92034385 33.76501385 -11.22831257 31.42175609 -11.16015625 27.68359375 C-11.14919922 26.67232422 -11.13824219 25.66105469 -11.12695312 24.61914062 C-11.10568359 23.56919922 -11.08441406 22.51925781 -11.0625 21.4375 C-11.02807597 19.35293369 -10.99793337 17.26829103 -10.97265625 15.18359375 C-10.95468994 14.26118896 -10.93672363 13.33878418 -10.91821289 12.38842773 C-10.89208214 9.85112738 -10.89208214 9.85112738 -12 7 C-10.68 7 -9.36 7 -8 7 C-8 6.34 -8 5.68 -8 5 C-6.35 5.33 -4.7 5.66 -3 6 C-2.67 5.01 -2.34 4.02 -2 3 C-1.34 3 -0.68 3 0 3 C0 2.01 0 1.02 0 0 Z " fill="#C8B056" transform="translate(306,37)"/>
<path d="M0 0 C0.928125 0.20625 1.85625 0.4125 2.8125 0.625 C3.1425 1.945 3.4725 3.265 3.8125 4.625 C2.8225 4.625 1.8325 4.625 0.8125 4.625 C0.8125 3.965 0.8125 3.305 0.8125 2.625 C-0.5075 2.625 -1.8275 2.625 -3.1875 2.625 C-2.8575 3.615 -2.5275 4.605 -2.1875 5.625 C-1.1975 6.099375 -0.2075 6.57375 0.8125 7.0625 C3.8125 8.625 3.8125 8.625 4.8125 10.625 C4.8125 12.625 4.8125 12.625 2.8125 15.625 C-0.13784182 16.63432746 -1.5854332 16.86908113 -4.5 15.6875 C-5.056875 15.336875 -5.61375 14.98625 -6.1875 14.625 C-6.1875 13.635 -6.1875 12.645 -6.1875 11.625 C-3.8775 11.955 -1.5675 12.285 0.8125 12.625 C0.8125 11.965 0.8125 11.305 0.8125 10.625 C-1.4975 9.635 -3.8075 8.645 -6.1875 7.625 C-6.375 4.75 -6.375 4.75 -6.1875 1.625 C-3.1875 -0.375 -3.1875 -0.375 0 0 Z " fill="#B4A15A" transform="translate(51.1875,126.375)"/>
<path d="M0 0 C1.65 0.33 3.3 0.66 5 1 C5.67031719 2.9570868 6.33614683 4.91571113 7 6.875 C7.556875 8.51082031 7.556875 8.51082031 8.125 10.1796875 C9 13 9 13 9 15 C8.01 15 7.02 15 6 15 C5.67 14.34 5.34 13.68 5 13 C1.97065509 12.34227572 1.97065509 12.34227572 -1 12 C-1.33 12.99 -1.66 13.98 -2 15 C-2.99 14.67 -3.98 14.34 -5 14 C-3.35 9.38 -1.7 4.76 0 0 Z M2 4 C1.34 5.98 0.68 7.96 0 10 C1.32 10 2.64 10 4 10 C3.67 8.02 3.34 6.04 3 4 C2.67 4 2.34 4 2 4 Z " fill="#A99752" transform="translate(85,127)"/>
<path d="M0 0 C1.32 0 2.64 0 4 0 C4.83739781 2.1234016 5.66980283 4.2487728 6.5 6.375 C6.9640625 7.55835938 7.428125 8.74171875 7.90625 9.9609375 C9 13 9 13 9 15 C8.01 15 7.02 15 6 15 C5.67 14.34 5.34 13.68 5 13 C1.97065509 12.34227572 1.97065509 12.34227572 -1 12 C-1.33 12.99 -1.66 13.98 -2 15 C-2.99 14.67 -3.98 14.34 -5 14 C-3.35 9.38 -1.7 4.76 0 0 Z M2 4 C1.34 5.98 0.68 7.96 0 10 C1.32 10 2.64 10 4 10 C3.67 8.02 3.34 6.04 3 4 C2.67 4 2.34 4 2 4 Z " fill="#AF9C54" transform="translate(145,127)"/>
<path d="M0 0 C0 10.23 0 20.46 0 31 C-0.66 31 -1.32 31 -2 31 C-2 28.36 -2 25.72 -2 23 C-2.99 23.33 -3.98 23.66 -5 24 C-5.15507886 16.36667408 -5.20727293 8.55115049 -4 1 C-2 0 -2 0 0 0 Z " fill="#FBDE61" transform="translate(302,46)"/>
<path d="M0 0 C0 0.99 0 1.98 0 3 C-1.98 3 -3.96 3 -6 3 C-6 4.32 -6 5.64 -6 7 C-4.35 7 -2.7 7 -1 7 C-1 7.99 -1 8.98 -1 10 C-2.65 10 -4.3 10 -6 10 C-6 11.32 -6 12.64 -6 14 C-4.02 14 -2.04 14 0 14 C0 14.66 0 15.32 0 16 C-2.97 16 -5.94 16 -9 16 C-9 11.05 -9 6.1 -9 1 C-6.04335481 -0.4783226 -3.25770263 -0.06032783 0 0 Z " fill="#A39354" transform="translate(37,126)"/>
<path d="M0 0 C0.33 0 0.66 0 1 0 C2.53956314 12.39898174 3.26866528 24.50706436 3 37 C2.67 37 2.34 37 2 37 C1.67 32.71 1.34 28.42 1 24 C0.34 24.99 -0.32 25.98 -1 27 C-1.02892385 22.87501462 -1.04677267 18.75005515 -1.0625 14.625 C-1.07087891 13.449375 -1.07925781 12.27375 -1.08789062 11.0625 C-1.09111328 9.94101563 -1.09433594 8.81953125 -1.09765625 7.6640625 C-1.10289307 6.62717285 -1.10812988 5.5902832 -1.11352539 4.52197266 C-1 2 -1 2 0 0 Z " fill="#A8964A" transform="translate(306,0)"/>
<path d="M0 0 C0.33 0 0.66 0 1 0 C1 9.57 1 19.14 1 29 C0.01 29 -0.98 29 -2 29 C-2.12794439 19.64584341 -2.10342754 10.30420998 -1 1 C-0.67 0.67 -0.34 0.34 0 0 Z " fill="#B19F5F" transform="translate(297,0)"/>
<path d="M0 0 C2 2 2 2 2.22705078 4.43017578 C2.21657715 5.4251709 2.20610352 6.42016602 2.1953125 7.4453125 C2.18886719 8.52167969 2.18242187 9.59804687 2.17578125 10.70703125 C2.15902344 11.83496094 2.14226562 12.96289062 2.125 14.125 C2.11597656 15.26066406 2.10695313 16.39632813 2.09765625 17.56640625 C2.07403098 20.37781299 2.04109013 23.18880298 2 26 C1.01 25.67 0.02 25.34 -1 25 C-1.02718316 22.14576808 -1.04692705 19.29179985 -1.0625 16.4375 C-1.07087891 15.63763672 -1.07925781 14.83777344 -1.08789062 14.01367188 C-1.10742247 9.22836896 -0.80437018 4.71854949 0 0 Z " fill="#908346" transform="translate(301,0)"/>
<path d="M0 0 C3.3 0 6.6 0 10 0 C10 0.99 10 1.98 10 3 C8.68 3 7.36 3 6 3 C6 7.29 6 11.58 6 16 C5.01 16 4.02 16 3 16 C3 11.71 3 7.42 3 3 C1.68 3 0.36 3 -1 3 C-0.67 2.01 -0.34 1.02 0 0 Z " fill="#A49558" transform="translate(183,126)"/>
<path d="M0 0 C0 0.66 0 1.32 0 2 C-1.32 2 -2.64 2 -4 2 C-4 6.29 -4 10.58 -4 15 C-4.99 15 -5.98 15 -7 15 C-7 10.71 -7 6.42 -7 2 C-8.32 2 -9.64 2 -11 2 C-11 1.34 -11 0.68 -11 0 C-9.54263913 -0.19491452 -8.08405407 -0.38069358 -6.625 -0.5625 C-5.81289062 -0.66691406 -5.00078125 -0.77132812 -4.1640625 -0.87890625 C-2 -1 -2 -1 0 0 Z " fill="#AA9C59" transform="translate(74,127)"/>
<path d="M0 0 C3.18424877 4.24566503 3.36192024 4.72354491 3.07421875 9.640625 C3.01943359 10.71054688 2.96464844 11.78046875 2.90820312 12.8828125 C2.83537109 13.99398437 2.76253906 15.10515625 2.6875 16.25 C2.62626953 17.37664062 2.56503906 18.50328125 2.50195312 19.6640625 C2.34882994 22.44383733 2.18099971 25.22192387 2 28 C1.34 28.33 0.68 28.66 0 29 C0 19.43 0 9.86 0 0 Z " fill="#D9C465" transform="translate(316,93)"/>
<path d="M0 0 C0.66 1.32 1.32 2.64 2 4 C0.35 6.31 -1.3 8.62 -3 11 C-3.33 10.34 -3.66 9.68 -4 9 C-6.31 9.33 -8.62 9.66 -11 10 C-11.33 9.01 -11.66 8.02 -12 7 C-10.68 7 -9.36 7 -8 7 C-8 6.34 -8 5.68 -8 5 C-6.35 5.33 -4.7 5.66 -3 6 C-2.67 5.01 -2.34 4.02 -2 3 C-1.34 3 -0.68 3 0 3 C0 2.01 0 1.02 0 0 Z " fill="#DAC053" transform="translate(306,37)"/>
<path d="M0 0 C0.33 0.99 0.66 1.98 1 3 C2.65 3 4.3 3 6 3 C6.33 2.34 6.66 1.68 7 1 C10 5.75 10 5.75 10 8 C9.01 8 8.02 8 7 8 C6.67 7.34 6.34 6.68 6 6 C2.97065509 5.34227572 2.97065509 5.34227572 0 5 C-0.33 5.99 -0.66 6.98 -1 8 C-1.99 7.67 -2.98 7.34 -4 7 C-1.125 1.125 -1.125 1.125 0 0 Z " fill="#C0B164" transform="translate(144,134)"/>
<path d="M0 0 C3 2 3 2 3.6875 4.625 C3.790625 5.40875 3.89375 6.1925 4 7 C3.01 7 2.02 7 1 7 C0.67 6.34 0.34 5.68 0 5 C-3.02934491 4.34227572 -3.02934491 4.34227572 -6 4 C-6.33 4.99 -6.66 5.98 -7 7 C-7.99 6.67 -8.98 6.34 -10 6 C-9.34 4.35 -8.68 2.7 -8 1 C-5.36 1.33 -2.72 1.66 0 2 C0 1.34 0 0.68 0 0 Z " fill="#D0BE71" transform="translate(90,135)"/>
<path d="M0 0 C2.31 0 4.62 0 7 0 C7 0.33 7 0.66 7 1 C5.35 1 3.7 1 2 1 C2.44703986 5.47883696 2.44703986 5.47883696 5 9 C4.34 9 3.68 9 3 9 C3 10.98 3 12.96 3 15 C2.01 15 1.02 15 0 15 C0 10.05 0 5.1 0 0 Z " fill="#B3A55C" transform="translate(122,127)"/>
<path d="M0 0 C2.00720923 0.28674418 4.0085944 0.61866701 6 1 C6 1.33 6 1.66 6 2 C4.35 2 2.7 2 1 2 C1 6.62 1 11.24 1 16 C0.34 16 -0.32 16 -1 16 C-1.02685095 13.52076199 -1.04676547 11.0418116 -1.0625 8.5625 C-1.07506836 7.50192383 -1.07506836 7.50192383 -1.08789062 6.41992188 C-1.09653588 4.61306441 -1.05220011 2.80612397 -1 1 C-0.67 0.67 -0.34 0.34 0 0 Z " fill="#BBAB61" transform="translate(10,126)"/>
<path d="M0 0 C0.928125 0.20625 1.85625 0.4125 2.8125 0.625 C3.1425 1.945 3.4725 3.265 3.8125 4.625 C2.8225 4.625 1.8325 4.625 0.8125 4.625 C0.8125 3.965 0.8125 3.305 0.8125 2.625 C-0.5075 2.625 -1.8275 2.625 -3.1875 2.625 C-3.5175 3.615 -3.8475 4.605 -4.1875 5.625 C-4.8475 6.285 -5.5075 6.945 -6.1875 7.625 C-6.375 4.75 -6.375 4.75 -6.1875 1.625 C-3.1875 -0.375 -3.1875 -0.375 0 0 Z " fill="#908649" transform="translate(51.1875,126.375)"/>
<path d="M0 0 C0.66 0 1.32 0 2 0 C2 5.28 2 10.56 2 16 C1.01 16 0.02 16 -1 16 C-0.67 10.72 -0.34 5.44 0 0 Z " fill="#D8CA88" transform="translate(172,126)"/>
<path d="M0 0 C0.33 0 0.66 0 1 0 C1.125 4.75 1.125 4.75 0 7 C0.89363605 9.60931266 0.89363605 9.60931266 2 12 C0.125 11.6875 0.125 11.6875 -2 11 C-4 8 -4 8 -3.625 5.8125 C-3.41875 5.214375 -3.2125 4.61625 -3 4 C-2.01 4 -1.02 4 0 4 C0 2.68 0 1.36 0 0 Z " fill="#B6A45B" transform="translate(18,130)"/>
<path d="M0 0 C1.6396875 0.2475 1.6396875 0.2475 3.3125 0.5 C6.87525873 1.06718184 6.87525873 1.06718184 10 1 C9.67 1.99 9.34 2.98 9 4 C6.08517222 4.80967438 4.53886783 5.21845993 1.6875 4.0625 C1.130625 3.711875 0.57375 3.36125 0 3 C0 2.01 0 1.02 0 0 Z " fill="#A59550" transform="translate(45,138)"/>
<path d="M0 0 C0.33 0 0.66 0 1 0 C1.1953125 2.05078125 1.390625 4.1015625 1.5859375 6.15234375 C1.72257812 6.76207031 1.85921875 7.37179688 2 8 C2.66 8.33 3.32 8.66 4 9 C4.33 8.34 4.66 7.68 5 7 C5.66 7 6.32 7 7 7 C6.67 8.32 6.34 9.64 6 11 C3.36 11 0.72 11 -2 11 C-2 10.34 -2 9.68 -2 9 C-1.34 9 -0.68 9 0 9 C0 6.03 0 3.06 0 0 Z " fill="#A68F37" transform="translate(293,19)"/>
<path d="M0 0 C0.66 0 1.32 0 2 0 C2.53190541 1.43344 3.05015258 2.87195367 3.5625 4.3125 C3.85253906 5.11300781 4.14257812 5.91351563 4.44140625 6.73828125 C5 9 5 9 4 12 C1.24331998 8.04476345 0.4682121 4.77576339 0 0 Z " fill="#C2AE55" transform="translate(313,169)"/>
<path d="M0 0 C2.25245881 2.68841859 3.88213958 4.64641875 5 8 C4.34 8.66 3.68 9.32 3 10 C-0.22265625 4.82421875 -0.22265625 4.82421875 -1 3 C-0.67 2.01 -0.34 1.02 0 0 Z " fill="#9B8B4B" transform="translate(167,131)"/>
<path d="M0 0 C0.33 0.66 0.66 1.32 1 2 C3.64 2 6.28 2 9 2 C8.67 2.66 8.34 3.32 8 4 C5.03 3.505 5.03 3.505 2 3 C1.67 3.99 1.34 4.98 1 6 C0.01 5.67 -0.98 5.34 -2 5 C-1.34 3.35 -0.68 1.7 0 0 Z " fill="#A89856" transform="translate(82,136)"/>
<path d="M0 0 C2 1 2 1 3.125 4.0625 C3.41375 5.031875 3.7025 6.00125 4 7 C2.68 6.67 1.36 6.34 0 6 C-0.38218767 4.34385343 -0.71395102 2.67542976 -1 1 C-0.67 0.67 -0.34 0.34 0 0 Z " fill="#A59755" transform="translate(129,135)"/>
<path d="M0 0 C2.95183101 2.95183101 3.08663988 5.95511947 4 10 C2.0625 9.375 2.0625 9.375 0 8 C-1.40540541 2.81081081 -1.40540541 2.81081081 0 0 Z " fill="#A08C4A" transform="translate(149,129)"/>
<path d="M0 0 C0.66 0.33 1.32 0.66 2 1 C-0.64 3.64 -3.28 6.28 -6 9 C-6.33 8.34 -6.66 7.68 -7 7 C-4.78071806 4.09197539 -3.07030857 2.04687238 0 0 Z " fill="#A6A6A6" transform="translate(242,57)"/>
<path d="M0 0 C1.37432457 3.81756824 0.67975039 7.07255329 0 11 C-2.4294516 7.3558226 -2.16179575 5.28758728 -2 1 C-1.34 0.67 -0.68 0.34 0 0 Z " fill="#BAA74F" transform="translate(324,82)"/>
<path d="M0 0 C0.33 0 0.66 0 1 0 C0.67 2.64 0.34 5.28 0 8 C-0.66 7.67 -1.32 7.34 -2 7 C-2.125 4.625 -2.125 4.625 -2 2 C-1.34 1.34 -0.68 0.68 0 0 Z " fill="#BDA950" transform="translate(322,172)"/>
<path d="M0 0 C0.66 1.32 1.32 2.64 2 4 C0.68 5.32 -0.64 6.64 -2 8 C-2 6.35 -2 4.7 -2 3 C-1.34 3 -0.68 3 0 3 C0 2.01 0 1.02 0 0 Z " fill="#B8A24B" transform="translate(306,37)"/>
</svg>
